#!OML:ASF I:\Actors\actors\Patient Classification 2\Patient 1\Session 1\actor1.ASF
:FULLY-SPECIFIED
:DEGREES
524
root -1.01834 18.1683 5.95905 -0.556391 1.15178 -5.00182
lowerback 4.71926 1.86085 4.21321
upperback 1.1578 2.70611 1.49722
thorax -1.32987 1.34143 -0.973832
lowerneck -8.05989 3.7495 1.09798
upperneck 33.9039 10.2842 -13.9531
head 13.7418 3.05756 -4.33493
rclavicle -3.77722e-014 -1.33496e-014
rhumerus -12.6171 46.452 -82.9869
rradius 106.139
rwrist 6.57206
rhand -26.9939 -32.5353
rfingers 7.12502
rthumb -0.414232 -422.515
lclavicle -3.77722e-014 -1.33496e-014
lhumerus -19.8229 -20.0895 100.734
lradius 97.8883
lwrist 79.5221
lhand -16.3113 -12.8269
lfingers 7.12502
lthumb 9.89979 16.9204
rfemur 0 0 0
rtibia 0
rfoot 0 0
rtoes 0
lfemur 18.8855 -6.21325 -11.8652
ltibia -20.0812
lfoot -1.49415 19.5715
ltoes -13.587
525
root -1.02007 18.1678 5.95479 -0.594993 1.12871 -5.10291
lowerback 4.8752 1.89694 4.34862
upperback 1.0837 2.77197 1.46625
thorax -1.48217 1.36994 -1.09221
lowerneck -7.95281 3.72388 1.12011
upperneck 33.8924 10.2216 -13.9124
head 13.702 3.0433 -4.33163
rclavicle -8.9259e-015 -1.25669e-014
rhumerus -12.4212 46.1895 -82.806
rradius 105.609
rwrist 6.65651
rhand -27.0419 -32.7814
rfingers 7.12502
rthumb -0.460516 -422.761
lclavicle -8.9259e-015 -1.25669e-014
lhumerus -19.919 -20.2659 100.762
lradius 97.9286
lwrist 79.7328
lhand -16.385 -12.8231
lfingers 7.12502
lthumb 9.8287 16.9275
rfemur 0 0 0
rtibia 0
rfoot 0 0
rtoes 0
lfemur 18.9544 -6.11564 -11.7341
ltibia -20.1657
lfoot -1.41701 19.5155
ltoes -13.5233
526
root -1.02159 18.1669 5.951 -0.636135 1.14927 -5.14456
lowerback 4.93262 1.90378 4.3411
upperback 1.08107 2.78423 1.46976
thorax -1.51689 1.37535 -1.08745
lowerneck -7.861 3.7338 1.19394
upperneck 33.8127 10.2267 -13.9788
head 13.6542 3.05521 -4.36862
rclavicle 2.52123e-014 3.55328e-015
rhumerus -12.2543 45.9063 -82.5922
rradius 105.209
rwrist 6.8319
rhand -27.1944 -33.286
rfingers 7.12502
rthumb -0.607811 -423.265
lclavicle 2.52123e-014 3.55328e-015
lhumerus -19.8811 -20.361 100.771
lradius 98.0078
lwrist 80.0769
lhand -16.7225 -12.8071
lfingers 7.12502
lthumb 9.50305 16.9587
rfemur 0 0 0
rtibia 0
rfoot 0 0
rtoes 0
lfemur 19.0058 -6.0723 -11.6744
ltibia -20.2238
lfoot -1.32213 19.4405
ltoes -13.5894
527
root -1.02198 18.1669 5.94891 -0.659918 1.21348 -5.1422
lowerback 4.92013 1.91059 4.30403
upperback 1.09625 2.79001 1.46253
thorax -1.49541 1.379 -1.07372
lowerneck -7.83354 3.72861 1.19062
upperneck 33.7754 10.2191 -13.9951
head 13.6314 3.05286 -4.37396
rclavicle -1.25995e-014 -1.50331e-014
rhumerus -12.2745 45.4832 -82.4728
rradius 104.983
rwrist 7.06356
rhand -27.2872 -33.7233
rfingers 7.12502
rthumb -0.6975 -423.702
lclavicle -1.25995e-014 -1.50331e-014
lhumerus -19.8305 -20.4492 100.794
lradius 98.0735
lwrist 80.224
lhand -17.024 -12.8245
lfingers 7.12502
lthumb 9.21214 16.9543
rfemur 0 0 0
rtibia 0
rfoot 0 0
rtoes 0
lfemur 19.0224 -6.09993 -11.6743
ltibia -20.258
lfoot -1.2661 19.3996
ltoes -13.6897
528
root -1.02246 18.1673 5.9484 -0.671788 1.31818 -5.15156
lowerback 4.85327 1.9047 4.23896
upperback 1.11872 2.77467 1.48244
thorax -1.43979 1.37299 -1.01311
lowerneck -7.86176 3.72214 1.08673
upperneck 33.7799 10.218 -13.9452
head 13.6311 3.04376 -4.33405
rclavicle -1.49057e-014 2.06239e-014
rhumerus -12.507 45.0099 -82.4579
rradius 104.924
rwrist 7.24369
rhand -27.2861 -34.0786
rfingers 7.12502
rthumb -0.696383 -424.057
lclavicle -1.49057e-014 2.06239e-014
lhumerus -19.8063 -20.4718 100.811
lradius 98.094
lwrist 80.0485
lhand -16.9189 -12.8989
lfingers 7.12502
lthumb 9.31357 16.8754
rfemur 0 0 0
rtibia 0
rfoot 0 0
rtoes 0
lfemur 19.0021 -6.11549 -11.6541
ltibia -20.2651
lfoot -1.22356 19.3397
ltoes -13.7257
529
root -1.02325 18.1665 5.94957 -0.689086 1.45562 -5.12678
lowerback 4.79771 1.88353 4.14509
upperback 1.12507 2.73845 1.47454
thorax -1.408 1.35595 -0.96474
lowerneck -7.84357 3.72596 1.05595
upperneck 33.7706 10.2184 -13.914
head 13.6188 3.04503 -4.31497
rclavicle -2.85411e-014 6.60959e-015
rhumerus -12.9672 44.5549 -82.6089
rradius 105.003
rwrist 7.28389
rhand -27.3255 -34.4465
rfingers 7.12502
rthumb -0.734446 -424.425
lclavicle -2.85411e-014 6.60959e-015
lhumerus -19.7861 -20.4281 100.772
lradius 98.0657
lwrist 79.7906
lhand -16.5148 -12.8496
lfingers 7.12502
lthumb 9.7035 16.9069
rfemur 0 0 0
rtibia 0
rfoot 0 0
rtoes 0
lfemur 18.9837 -6.15596 -11.6723
ltibia -20.2601
lfoot -1.20614 19.2694
ltoes -13.7215
530
root -1.02353 18.1652 5.95205 -0.726152 1.62914 -5.058
lowerback 4.75789 1.85721 4.01789
upperback 1.1378 2.69429 1.45376
thorax -1.37963 1.33501 -0.911131
lowerneck -7.8241 3.73425 1.03006
upperneck 33.7612 10.222 -13.8749
head 13.6062 3.0495 -4.29301
rclavicle -8.98569e-015 7.7526e-015
rhumerus -13.5086 44.1315 -82.7698
rradius 105.165
rwrist 7.26114
rhand -27.3389 -34.6813
rfingers 7.12502
rthumb -0.747456 -424.66
lclavicle -8.98569e-015 7.7526e-015
lhumerus -19.7439 -20.3828 100.752
lradius 98.0647
lwrist 79.7175
lhand -16.2357 -12.7077
lfingers 7.12502
lthumb 9.97277 17.0361
rfemur 0 0 0
rtibia 0
rfoot 0 0
rtoes 0
lfemur 18.9913 -6.25368 -11.7488
ltibia -20.2538
lfoot -1.20591 19.1858
ltoes -13.7689
531
root -1.02355 18.1651 5.95305 -0.758144 1.79996 -5.01844
lowerback 4.72684 1.82438 3.88976
upperback 1.16182 2.64243 1.47917
thorax -1.34694 1.31039 -0.809321
lowerneck -7.86994 3.75755 0.889621
upperneck 33.7753 10.2767 -13.8248
head 13.6194 3.0592 -4.23878
rclavicle -2.64585e-014 2.08227e-014
rhumerus -14.0467 43.8685 -82.8377
rradius 105.401
rwrist 7.30102
rhand -27.3056 -34.8681
rfingers 7.12502
rthumb -0.715216 -424.847
lclavicle -2.64585e-014 2.08227e-014
lhumerus -19.6768 -20.3003 100.78
lradius 98.0873
lwrist 79.7267
lhand -16.1837 -12.6824
lfingers 7.12502
lthumb 10.0229 17.059
rfemur 0 0 0
rtibia 0
rfoot 0 0
rtoes 0
lfemur 18.9873 -6.37226 -11.7946
ltibia -20.2493
lfoot -1.16671 19.1079
ltoes -13.9339
532
root -1.0242 18.1652 5.95321 -0.776287 1.93468 -5.00427
lowerback 4.70199 1.79127 3.78221
upperback 1.17905 2.59201 1.51507
thorax -1.32396 1.28613 -0.708714
lowerneck -7.913 3.78947 0.775555
upperneck 33.7611 10.3604 -13.8511
head 13.6302 3.07743 -4.21556
rclavicle -3.02929e-014 8.24956e-015
rhumerus -14.641 43.8472 -82.9191
rradius 105.699
rwrist 7.3919
rhand -27.3418 -35.1151
rfingers 7.12502
rthumb -0.750189 -425.093
lclavicle -3.02929e-014 8.24956e-015
lhumerus -19.5883 -20.1673 100.783
lradius 98.0779
lwrist 79.7403
lhand -16.1588 -12.7647
lfingers 7.12502
lthumb 10.047 16.9755
rfemur 0 0 0
rtibia 0
rfoot 0 0
rtoes 0
lfemur 19.0092 -6.46127 -11.8089
ltibia -20.3343
lfoot -1.08745 19.0655
ltoes -13.9573
533
root -1.02594 18.1644 5.95525 -0.802025 2.05647 -5.01342
lowerback 4.68673 1.7765 3.74019
upperback 1.17857 2.56948 1.50524
thorax -1.31823 1.2751 -0.693664
lowerneck -7.87961 3.78052 0.817649
upperneck 33.7069 10.3642 -13.9526
head 13.6091 3.07711 -4.26235
rclavicle 6.44963e-015 -1.62506e-014
rhumerus -15.3166 43.917 -83.0742
rradius 106.022
rwrist 7.4569
rhand -27.321 -35.2164
rfingers 7.12502
rthumb -0.730072 -425.195
lclavicle 6.44963e-015 -1.62506e-014
lhumerus -19.5182 -20.137 100.733
lradius 98.0612
lwrist 79.7358
lhand -16.2067 -12.745
lfingers 7.12502
lthumb 10.0008 16.9974
rfemur 0 0 0
rtibia 0
rfoot 0 0
rtoes 0
lfemur 19.0804 -6.51623 -11.7917
ltibia -20.4876
lfoot -0.982649 19.0217
ltoes -13.933
534
root -1.02664 18.1665 5.95238 -0.68512 2.01636 -5.42601
lowerback 4.6275 1.80826 4.13811
upperback 1.09699 2.63141 1.56884
thorax -1.35157 1.30348 -0.85267
lowerneck -7.84845 3.76628 0.877537
upperneck 33.7063 10.3395 -13.9796
head 13.6037 3.07238 -4.28845
rclavicle 3.57191e-015 -1.11319e-014
rhumerus -15.9863 44.0956 -83.1733
rradius 106.39
rwrist 7.35089
rhand -27.0991 -35.1645
rfingers 7.12502
rthumb -0.515803 -425.144
lclavicle 3.57191e-015 -1.11319e-014
lhumerus -19.4956 -20.1565 100.658
lradius 98.0506
lwrist 79.6968
lhand -16.2709 -12.5452
lfingers 7.12502
lthumb 9.93878 17.2002
rfemur 0 0 0
rtibia 0
rfoot 0 0
rtoes 0
lfemur 18.9273 -6.60554 -11.3169
ltibia -20.4382
lfoot -1.05395 19.1425
ltoes -13.8939
535
root -1.02706 18.1699 5.94512 -0.561097 1.90018 -5.74346
lowerback 4.63656 1.84358 4.42094
upperback 1.00605 2.69677 1.62183
thorax -1.43677 1.33244 -0.961338
lowerneck -7.86599 3.80152 0.897999
upperneck 33.754 10.3947 -13.9677
head 13.6357 3.09761 -4.28187
rclavicle 1.38901e-014 2.36554e-014
rhumerus -16.5812 44.537 -83.1571
rradius 106.801
rwrist 7.0491
rhand -26.9005 -35.1012
rfingers 7.12502
rthumb -0.32398 -425.081
lclavicle 1.38901e-014 2.36554e-014
lhumerus -19.4999 -20.1043 100.566
lradius 98.0352
lwrist 79.7112
lhand -16.2597 -12.3649
lfingers 7.12502
lthumb 9.94959 17.38
rfemur 0 0 0
rtibia 0
rfoot 0 0
rtoes 0
lfemur 18.7705 -6.72033 -10.9573
ltibia -20.377
lfoot -1.18718 19.376
ltoes -13.5872
536
root -1.03041 18.1677 5.94788 -0.870038 2.15556 -4.7393
lowerback 4.93226 1.77767 3.32979
upperback 1.09749 2.5627 1.34495
thorax -1.54988 1.26841 -0.63986
lowerneck -7.84655 3.83544 0.970971
upperneck 33.7629 10.455 -14.0334
head 13.6515 3.12625 -4.31493
rclavicle 4.25399e-014 -1.49089e-016
rhumerus -17.1082 45.1203 -83.128
rradius 107.243
rwrist 6.7549
rhand -26.7436 -35.1074
rfingers 7.12502
rthumb -0.172422 -425.087
lclavicle 4.25399e-014 -1.49089e-016
lhumerus -19.5346 -20.0595 100.461
lradius 98.0151
lwrist 79.7605
lhand -16.3129 -12.4623
lfingers 7.12502
lthumb 9.89827 17.285
rfemur 0 0 0
rtibia 0
rfoot 0 0
rtoes 0
lfemur 18.9955 -6.79061 -12.1096
ltibia -20.265
lfoot -1.13942 19.1658
ltoes -13.719
